<svg height="35" viewBox="0 0 36 35" width="36" xmlns="http://www.w3.org/2000/svg"><g fill="#7789be" fill-rule="evenodd" stroke="#7789be" stroke-width=".8"><path d="m25.442 11.868-10.037 10.036-4.447-4.447a.8.8 0 1 0 -1.13 1.132l5.012 5.011a.8.8 0 0 0 1.13 0l10.604-10.6a.8.8 0 1 0 -1.131-1.131z"/><path d="m18 .628c-9.106 0-16.8 7.693-16.8 16.8s7.694 16.8 16.8 16.8 16.8-7.693 16.8-16.8-7.694-16.8-16.8-16.8zm0 32c-8.24 0-15.2-6.96-15.2-15.2 0-8.239 6.96-15.2 15.2-15.2s15.2 6.961 15.2 15.2c0 8.24-6.96 15.2-15.2 15.2z" fill-rule="nonzero"/></g></svg>